<svg width="299" height="126" viewBox="0 0 299 126" fill="none" xmlns="http://www.w3.org/2000/svg">
<path d="M113.5 45V27.3915C113.5 26.1664 113.25 24.9542 112.765 23.8291C112.281 22.7041 111.571 21.6898 110.681 20.8485L94.0915 5.17047C93.256 4.38056 92.1498 3.94043 91 3.94043C89.8502 3.94043 88.744 4.38056 87.9085 5.17047L71.3193 20.8485C70.4288 21.6898 69.7194 22.7041 69.2346 23.8291C68.7498 24.9542 68.4999 26.1664 68.5 27.3915V45C68.5 46.1934 68.9741 47.338 69.818 48.182C70.6619 49.0259 71.8065 49.5 73 49.5H109C110.193 49.5 111.338 49.0259 112.182 48.182C113.026 47.338 113.5 46.1934 113.5 45Z" stroke="#0793DB" strokeLidth="6" strokeLinecap="round" strokeLinejoin="round"/>
<rect width="54" height="54" rx="4" fill="#C6C6C6"/>
<rect y="61" width="54" height="54" rx="4" fill="#0492D4"/>
<rect x="64" y="61" width="54" height="54" rx="4" fill="#878785"/>
<path d="M155.09 80.29C153.969 77.9313 152.345 76.114 150.218 74.838C148.091 73.5233 145.617 72.866 142.794 72.866C139.971 72.866 137.419 73.5233 135.138 74.838C132.895 76.114 131.117 77.97 129.802 80.406C128.526 82.8033 127.888 85.5873 127.888 88.758C127.888 91.9287 128.526 94.7127 129.802 97.11C131.117 99.5073 132.895 101.363 135.138 102.678C137.419 103.954 139.971 104.592 142.794 104.592C146.738 104.592 149.986 103.413 152.538 101.054C155.09 98.6953 156.579 95.5053 157.004 91.484H140.88V87.192H162.63V91.252C162.321 94.5773 161.277 97.632 159.498 100.416C157.719 103.161 155.38 105.346 152.48 106.97C149.58 108.555 146.351 109.348 142.794 109.348C139.043 109.348 135.621 108.478 132.528 106.738C129.435 104.959 126.979 102.504 125.162 99.372C123.383 96.24 122.494 92.702 122.494 88.758C122.494 84.814 123.383 81.276 125.162 78.144C126.979 74.9733 129.435 72.518 132.528 70.778C135.621 68.9993 139.043 68.11 142.794 68.11C147.086 68.11 150.875 69.1733 154.162 71.3C157.487 73.4267 159.904 76.4233 161.412 80.29H155.09ZM166.304 101.548C166.304 100.036 166.61 98.713 167.222 97.579C167.834 96.427 168.671 95.536 169.733 94.906C170.813 94.276 172.01 93.961 173.324 93.961C174.62 93.961 175.745 94.24 176.699 94.798C177.653 95.356 178.364 96.058 178.832 96.904V94.204H181.316V109H178.832V106.246C178.346 107.11 177.617 107.83 176.645 108.406C175.691 108.964 174.575 109.243 173.297 109.243C171.983 109.243 170.795 108.919 169.733 108.271C168.671 107.623 167.834 106.714 167.222 105.544C166.61 104.374 166.304 103.042 166.304 101.548ZM178.832 101.575C178.832 100.459 178.607 99.487 178.157 98.659C177.707 97.831 177.095 97.201 176.321 96.769C175.565 96.319 174.728 96.094 173.81 96.094C172.892 96.094 172.055 96.31 171.299 96.742C170.543 97.174 169.94 97.804 169.49 98.632C169.04 99.46 168.815 100.432 168.815 101.548C168.815 102.682 169.04 103.672 169.49 104.518C169.94 105.346 170.543 105.985 171.299 106.435C172.055 106.867 172.892 107.083 173.81 107.083C174.728 107.083 175.565 106.867 176.321 106.435C177.095 105.985 177.707 105.346 178.157 104.518C178.607 103.672 178.832 102.691 178.832 101.575ZM188.465 96.229V104.95C188.465 105.67 188.618 106.183 188.924 106.489C189.23 106.777 189.761 106.921 190.517 106.921H192.326V109H190.112C188.744 109 187.718 108.685 187.034 108.055C186.35 107.425 186.008 106.39 186.008 104.95V96.229H184.091V94.204H186.008V90.478H188.465V94.204H192.326V96.229H188.465ZM208.803 101.035C208.803 101.503 208.776 101.998 208.722 102.52H196.896C196.986 103.978 197.481 105.121 198.381 105.949C199.299 106.759 200.406 107.164 201.702 107.164C202.764 107.164 203.646 106.921 204.348 106.435C205.068 105.931 205.572 105.265 205.86 104.437H208.506C208.11 105.859 207.318 107.02 206.13 107.92C204.942 108.802 203.466 109.243 201.702 109.243C200.298 109.243 199.038 108.928 197.922 108.298C196.824 107.668 195.96 106.777 195.33 105.625C194.7 104.455 194.385 103.105 194.385 101.575C194.385 100.045 194.691 98.704 195.303 97.552C195.915 96.4 196.77 95.518 197.868 94.906C198.984 94.276 200.262 93.961 201.702 93.961C203.106 93.961 204.348 94.267 205.428 94.879C206.508 95.491 207.336 96.337 207.912 97.417C208.506 98.479 208.803 99.685 208.803 101.035ZM206.265 100.522C206.265 99.586 206.058 98.785 205.644 98.119C205.23 97.435 204.663 96.922 203.943 96.58C203.241 96.22 202.458 96.04 201.594 96.04C200.352 96.04 199.29 96.436 198.408 97.228C197.544 98.02 197.049 99.118 196.923 100.522H206.265Z" fill="black"/>
<path d="M76.45 79.4L79.0587 80.8815C79.0613 80.8769 79.0639 80.8723 79.0664 80.8678L76.45 79.4ZM82.7 73L81.2046 70.3993C81.1999 70.402 81.1951 70.4047 81.1904 70.4075L82.7 73ZM101.5 73.45L103.13 70.9313L101.5 73.45ZM107.7 81.25V84.25C108.689 84.25 109.615 83.7625 110.174 82.9468C110.733 82.1311 110.855 81.092 110.499 80.1693L107.7 81.25ZM102.25 81.25L99.5249 82.5044C100.015 83.5684 101.079 84.25 102.25 84.25V81.25ZM98.05 76.4L96.4516 78.9387C96.4585 78.9431 96.4655 78.9475 96.4725 78.9518L98.05 76.4ZM85 76.4L86.5172 78.9881L86.5172 78.9881L85 76.4ZM80.45 81.25L83.0982 82.6595C83.1013 82.6537 83.1044 82.6479 83.1075 82.642L80.45 81.25ZM80.45 95.85L77.7925 97.242C77.7956 97.2479 77.7987 97.2537 77.8018 97.2595L80.45 95.85ZM85 100.65L86.5172 98.0619L85 100.65ZM98.05 100.7L99.6144 103.26C99.6187 103.257 99.6231 103.254 99.6275 103.252L98.05 100.7ZM102.25 95.85V92.85C101.079 92.85 100.015 93.5316 99.5249 94.5956L102.25 95.85ZM107.7 95.85L110.495 96.94C110.855 96.0169 110.736 94.9755 110.177 94.1574C109.618 93.3393 108.691 92.85 107.7 92.85V95.85ZM101.5 103.6L103.109 106.132C103.116 106.128 103.123 106.123 103.13 106.119L101.5 103.6ZM82.7 104.05L81.1904 106.643C81.2033 106.65 81.2162 106.657 81.2292 106.665L82.7 104.05ZM76.45 97.7L79.0587 96.2185L76.45 97.7ZM77.15 88.55C77.15 85.6187 77.8057 83.0877 79.0587 80.8815L73.8413 77.9185C72.0276 81.1123 71.15 84.6813 71.15 88.55H77.15ZM79.0664 80.8678C80.3456 78.5875 82.0526 76.8485 84.2096 75.5925L81.1904 70.4075C78.0808 72.2182 75.621 74.7459 73.8336 77.9322L79.0664 80.8678ZM84.1954 75.6007C86.3835 74.3426 88.8136 73.7 91.55 73.7V67.7C87.8197 67.7 84.3498 68.5908 81.2046 70.3993L84.1954 75.6007ZM91.55 73.7C94.8469 73.7 97.5819 74.488 99.8702 75.9687L103.13 70.9313C99.7514 68.7453 95.8531 67.7 91.55 67.7V73.7ZM99.8702 75.9687C102.134 77.4336 103.813 79.5112 104.901 82.3306L110.499 80.1693C108.987 76.2554 106.533 73.1331 103.13 70.9313L99.8702 75.9687ZM107.7 78.25H102.25V84.25H107.7V78.25ZM104.975 79.9956C103.781 77.4005 101.999 75.3145 99.6275 73.8482L96.4725 78.9518C97.7672 79.7521 98.7861 80.8995 99.5249 82.5044L104.975 79.9956ZM99.6484 73.8613C97.285 72.3732 94.5397 71.7 91.55 71.7V77.7C93.627 77.7 95.215 78.1601 96.4516 78.9387L99.6484 73.8613ZM91.55 71.7C88.6306 71.7 85.9154 72.3859 83.4828 73.8119L86.5172 78.9881C87.9513 78.1474 89.6028 77.7 91.55 77.7V71.7ZM83.4828 73.8119C81.0364 75.246 79.1374 77.2905 77.7925 79.858L83.1075 82.642C83.9626 81.0095 85.0969 79.8206 86.5172 78.9881L83.4828 73.8119ZM77.8018 79.8405C76.4296 82.4185 75.8 85.3543 75.8 88.55H81.8C81.8 86.1457 82.2704 84.2149 83.0982 82.6595L77.8018 79.8405ZM75.8 88.55C75.8 91.7204 76.4327 94.646 77.7925 97.242L83.1075 94.458C82.2673 92.854 81.8 90.9129 81.8 88.55H75.8ZM77.8018 97.2595C79.1503 99.7932 81.0488 101.811 83.4828 103.238L86.5172 98.0619C85.0845 97.2221 83.9497 96.0401 83.0982 94.4405L77.8018 97.2595ZM83.4828 103.238C85.9154 104.664 88.6306 105.35 91.55 105.35V99.35C89.6028 99.35 87.9513 98.9026 86.5172 98.0619L83.4828 103.238ZM91.55 105.35C94.5238 105.35 97.2564 104.701 99.6144 103.26L96.4857 98.1402C95.2436 98.8992 93.6429 99.35 91.55 99.35V105.35ZM99.6275 103.252C101.999 101.785 103.781 99.6995 104.975 97.1044L99.5249 94.5956C98.7861 96.2005 97.7672 97.3479 96.4725 98.1482L99.6275 103.252ZM102.25 98.85H107.7V92.85H102.25V98.85ZM104.905 94.76C103.819 97.5441 102.142 99.6113 99.8702 101.081L103.13 106.119C106.525 103.922 108.981 100.823 110.495 96.94L104.905 94.76ZM99.8913 101.068C97.6003 102.523 94.8576 103.3 91.55 103.3V109.3C95.8424 109.3 99.7331 108.277 103.109 106.132L99.8913 101.068ZM91.55 103.3C88.8016 103.3 86.3627 102.668 84.1708 101.435L81.2292 106.665C84.3706 108.432 87.8318 109.3 91.55 109.3V103.3ZM84.2096 101.457C82.0434 100.196 80.3355 98.4667 79.0587 96.2185L73.8413 99.1815C75.6312 102.333 78.09 104.837 81.1904 106.643L84.2096 101.457ZM79.0587 96.2185C77.8057 94.0123 77.15 91.4813 77.15 88.55H71.15C71.15 92.4187 72.0276 95.9877 73.8413 99.1815L79.0587 96.2185Z" fill="white"/>
</svg>
