<svg width="94" height="92" viewBox="0 0 94 92" fill="none" xmlns="http://www.w3.org/2000/svg">
<path d="M90.4153 35.8475V21.8203C90.4154 20.8444 90.2163 19.8788 89.8301 18.9825C89.4439 18.0863 88.8789 17.2783 88.1695 16.6081L74.9543 4.11887C74.2887 3.48962 73.4075 3.13901 72.4916 3.13901C71.5757 3.13901 70.6945 3.48962 70.0289 4.11887L56.8137 16.6081C56.1043 17.2783 55.5393 18.0863 55.1531 18.9825C54.7669 19.8788 54.5678 20.8444 54.5679 21.8203V35.8475C54.5679 36.7982 54.9455 37.71 55.6178 38.3823C56.2901 39.0545 57.2019 39.4322 58.1526 39.4322H86.8306C87.7813 39.4322 88.6931 39.0545 89.3654 38.3823C90.0377 37.71 90.4153 36.7982 90.4153 35.8475Z" stroke="white" stroke-width="6" stroke-linecap="round" stroke-linejoin="round"/>
<rect width="43.0169" height="43.0169" rx="4" fill="white"/>
<rect y="48.5932" width="43.0169" height="43.0169" rx="4" fill="white"/>
<rect x="50.9829" y="48.5932" width="43.0169" height="43.0169" rx="4" fill="white"/>
</svg>
